<svg width="100" height="25" viewBox="0 0 100 25" fill="none" xmlns="http://www.w3.org/2000/svg">
<path d="M72.4257 20.4212H70.6257V10.0679H72.4257V20.4212ZM65.1149 17.2959C65.9824 17.0688 66.6722 16.6533 67.1763 16.0771C67.7225 15.4459 67.9917 14.6976 67.9917 13.8308C67.9917 12.5619 67.5297 11.5937 66.5872 10.9375C65.7718 10.3578 64.695 10.0722 63.3584 10.0722H56.8608V20.4212H58.6687V11.8708H63.6469C65.2891 11.8708 66.1017 12.5198 66.1017 13.8143C66.1017 14.457 65.8489 14.9418 65.3284 15.2866C64.8735 15.5801 64.3195 15.7229 63.6469 15.7229H60.8836L64.9964 19.8242C65.1842 20.0142 65.4078 20.165 65.6543 20.2679C65.9007 20.3709 66.1651 20.4239 66.4323 20.424H68.2544L65.1149 17.2959ZM78.2486 15.2538L77.6402 16.1492H84.3927V14.347H79.9615C79.6237 14.3469 79.291 14.4296 78.9924 14.5876C78.6938 14.7457 78.4385 14.9744 78.2486 15.2538ZM75.2932 10.0714V20.4212H77.0954V11.8779H83.346C83.6843 11.8776 84.0174 11.7944 84.3161 11.6356C84.6149 11.4767 84.8701 11.2471 85.0596 10.9668L85.6644 10.0714H75.2932ZM47.4629 15.2538L46.8538 16.1492H53.607V14.347H49.1751C48.8374 14.3471 48.5048 14.4297 48.2064 14.5878C47.9079 14.7458 47.6527 14.9745 47.4629 15.2538ZM48.5782 18.6183H46.309V11.8772H52.5596C52.8978 11.877 53.2309 11.7939 53.5296 11.6352C53.8284 11.4765 54.0837 11.247 54.2732 10.9668L54.8787 10.0714H44.5068V20.4212H54.8801V18.6183H48.5782ZM97.6314 10.0714C97.3642 10.0714 97.1009 10.1351 96.8632 10.2572C96.6255 10.3792 96.4204 10.5562 96.2647 10.7733L93.118 15.1596L89.7293 10.7326C89.5723 10.5276 89.3702 10.3614 89.1386 10.247C88.9071 10.1326 88.6524 10.073 88.3941 10.0729H86.9032L92.1763 16.9689V20.4212H93.9677V16.9939L99.1087 10.0722L97.6314 10.0714Z" fill="white" fill-opacity="0.8"/>
<path d="M13.4754 20.4329H16.0658L19.7073 16.665L22.7626 19.8195C22.9507 20.0136 23.1759 20.1679 23.4247 20.2733C23.6736 20.3786 23.9411 20.4329 24.2114 20.4329H25.9472L20.9012 15.2691L25.9472 10.0717H23.4331L19.7073 13.8903L16.5657 10.6772C16.3779 10.4852 16.1536 10.3326 15.9061 10.2283C15.6585 10.1241 15.3926 10.0704 15.124 10.0703H13.4747L18.5042 15.2677L13.4754 20.4329ZM4.85643 15.2541L4.24737 16.1495H11.0006V14.3473H6.56865C6.23095 14.3474 5.89838 14.43 5.59994 14.5881C5.3015 14.7461 5.04625 14.9748 4.85643 15.2541ZM1.90039 10.0717V20.4215H3.70258V11.8782H9.95311C10.2914 11.8779 10.6245 11.7947 10.9233 11.6359C11.222 11.477 11.4773 11.2474 11.6668 10.9671L12.2722 10.0717H1.90039Z" fill="white" fill-opacity="0.8"/>
<mask id="path-3-outside-1_1033_2661" maskUnits="userSpaceOnUse" x="25.9307" y="-0.5" width="27" height="22" fill="black">
<rect fill="white" x="25.9307" y="-0.5" width="27" height="22"/>
<path fill-rule="evenodd" clip-rule="evenodd" d="M51.4 0.5H51.3999C46.8612 1.65862 43.0615 4.1496 39.9812 7.97294C39.2499 8.88788 38.5762 9.84748 37.9641 10.8462C37.9326 10.9005 37.9005 10.9535 37.8686 11.0065L37.8685 11.0066C37.8434 11.0481 37.8183 11.0897 37.7935 11.1318C37.406 11.7749 37.0347 12.4451 36.6796 13.1424C36.5801 13.3357 36.4828 13.5304 36.3876 13.7265C36.3412 13.8251 36.294 13.9229 36.2448 14.0228C36.1955 14.1228 36.1491 14.222 36.102 14.3234C36.0391 14.4569 35.9777 14.5926 35.9164 14.7282L35.9163 14.7283C35.7107 15.181 35.5108 15.6453 35.3165 16.1213C35.2251 16.3455 35.1359 16.5719 35.0459 16.8004C34.9788 16.9707 34.9125 17.1431 34.847 17.3173L30.7207 10.949C30.3694 10.4092 29.6875 10.0722 28.9413 10.0722H26.9306L33.6538 20.4326H34.8541C34.874 20.4326 34.894 20.4321 34.9142 20.4312H35.2923C36.0984 20.4312 36.8124 19.9842 37.0388 19.3301C38.3968 15.4173 40.0971 12.1828 42.1397 9.62661C44.1855 7.08274 46.5845 5.2143 49.3367 4.02129C50.1968 3.69367 51.1053 3.40298 52.0644 3.15768L51.4 0.5Z"/>
</mask>
<path fill-rule="evenodd" clip-rule="evenodd" d="M51.4 0.5H51.3999C46.8612 1.65862 43.0615 4.1496 39.9812 7.97294C39.2499 8.88788 38.5762 9.84748 37.9641 10.8462C37.9326 10.9005 37.9005 10.9535 37.8686 11.0065L37.8685 11.0066C37.8434 11.0481 37.8183 11.0897 37.7935 11.1318C37.406 11.7749 37.0347 12.4451 36.6796 13.1424C36.5801 13.3357 36.4828 13.5304 36.3876 13.7265C36.3412 13.8251 36.294 13.9229 36.2448 14.0228C36.1955 14.1228 36.1491 14.222 36.102 14.3234C36.0391 14.4569 35.9777 14.5926 35.9164 14.7282L35.9163 14.7283C35.7107 15.181 35.5108 15.6453 35.3165 16.1213C35.2251 16.3455 35.1359 16.5719 35.0459 16.8004C34.9788 16.9707 34.9125 17.1431 34.847 17.3173L30.7207 10.949C30.3694 10.4092 29.6875 10.0722 28.9413 10.0722H26.9306L33.6538 20.4326H34.8541C34.874 20.4326 34.894 20.4321 34.9142 20.4312H35.2923C36.0984 20.4312 36.8124 19.9842 37.0388 19.3301C38.3968 15.4173 40.0971 12.1828 42.1397 9.62661C44.1855 7.08274 46.5845 5.2143 49.3367 4.02129C50.1968 3.69367 51.1053 3.40298 52.0644 3.15768L51.4 0.5Z" fill="url(#paint0_linear_1033_2661)"/>
<path d="M51.3999 0.5V0.0416667H51.3424L51.2866 0.0559075L51.3999 0.5ZM51.4 0.5L51.8446 0.388838L51.7578 0.0416667H51.4V0.5ZM39.9812 7.97294L39.6243 7.68539L39.6232 7.68676L39.9812 7.97294ZM37.9641 10.8462L37.5732 10.6066L37.5678 10.6159L37.9641 10.8462ZM37.8686 11.0065L37.4762 10.7695L37.4755 10.7707L37.8686 11.0065ZM37.8685 11.0066L38.2608 11.2435L38.2615 11.2424L37.8685 11.0066ZM37.7935 11.1318L38.1861 11.3683L38.1883 11.3645L37.7935 11.1318ZM36.6796 13.1424L37.0871 13.3522L37.088 13.3504L36.6796 13.1424ZM36.3876 13.7265L35.9752 13.5263L35.9729 13.5312L36.3876 13.7265ZM36.2448 14.0228L35.8337 13.8202L35.8337 13.8202L36.2448 14.0228ZM36.102 14.3234L36.5167 14.5186L36.5176 14.5166L36.102 14.3234ZM35.9164 14.7282L36.3325 14.9203L36.3339 14.9172L35.9164 14.7282ZM35.9163 14.7283L35.5002 14.5362L35.499 14.5387L35.9163 14.7283ZM35.3165 16.1213L34.8922 15.9482L34.8921 15.9483L35.3165 16.1213ZM35.0459 16.8004L35.4724 16.9683L35.4724 16.9683L35.0459 16.8004ZM34.847 17.3173L34.4623 17.5666L34.9562 18.3288L35.276 17.4787L34.847 17.3173ZM30.7207 10.949L31.1053 10.6998L31.1048 10.699L30.7207 10.949ZM26.9306 10.0722V9.61385H26.0868L26.5462 10.3217L26.9306 10.0722ZM33.6538 20.4326L33.2694 20.6821L33.4049 20.891H33.6538V20.4326ZM34.9142 20.4312V19.9728H34.9033L34.8924 19.9734L34.9142 20.4312ZM37.0388 19.3301L36.6058 19.1799L36.6056 19.1803L37.0388 19.3301ZM42.1397 9.62661L41.7826 9.33937L41.7817 9.34049L42.1397 9.62661ZM49.3367 4.02129L49.1735 3.59298L49.1639 3.59665L49.1544 3.60076L49.3367 4.02129ZM52.0644 3.15768L52.178 3.60172L52.6196 3.48876L52.5091 3.04652L52.0644 3.15768ZM51.3999 0.958333H51.4V0.0416667H51.3999V0.958333ZM40.3381 8.26049C43.3597 4.50999 47.0757 2.07689 51.5133 0.944093L51.2866 0.0559075C46.6466 1.24035 42.7633 3.7892 39.6243 7.68539L40.3381 8.26049ZM38.3549 11.0857C38.957 10.1032 39.6198 9.1592 40.3392 8.25911L39.6232 7.68676C38.88 8.61657 38.1954 9.59175 37.5734 10.6067L38.3549 11.0857ZM38.2609 11.2434C38.2925 11.191 38.3266 11.1347 38.3604 11.0764L37.5678 10.6159C37.5385 10.6663 37.5085 10.716 37.4762 10.7695L38.2609 11.2434ZM38.2615 11.2424L38.2616 11.2423L37.4755 10.7707L37.4755 10.7708L38.2615 11.2424ZM38.1883 11.3645C38.2117 11.3249 38.2355 11.2855 38.2608 11.2435L37.4762 10.7696C37.4513 10.8108 37.4249 10.8545 37.3986 10.899L38.1883 11.3645ZM37.088 13.3504C37.4384 12.6624 37.8044 12.0017 38.1861 11.3683L37.4009 10.8952C37.0076 11.548 36.631 12.2278 36.2712 12.9345L37.088 13.3504ZM36.7999 13.9267C36.8935 13.7338 36.9893 13.5423 37.0871 13.3522L36.2721 12.9327C36.171 13.1291 36.072 13.327 35.9753 13.5264L36.7999 13.9267ZM36.6559 14.2255C36.7063 14.1231 36.7546 14.0228 36.8022 13.9218L35.9729 13.5312C35.9277 13.6273 35.8817 13.7227 35.8337 13.8202L36.6559 14.2255ZM36.5176 14.5166C36.5646 14.4154 36.6091 14.3203 36.6559 14.2255L35.8337 13.8202C35.7819 13.9253 35.7335 14.0287 35.6863 14.1303L36.5176 14.5166ZM36.3339 14.9172C36.3955 14.781 36.4555 14.6485 36.5167 14.5186L35.6873 14.1283C35.6227 14.2654 35.56 14.4041 35.4988 14.5392L36.3339 14.9172ZM36.3325 14.9204L36.3325 14.9203L35.5002 14.5361L35.5002 14.5362L36.3325 14.9204ZM35.7409 16.2945C35.933 15.8238 36.1305 15.3649 36.3336 14.9178L35.499 14.5387C35.2908 14.997 35.0886 15.4669 34.8922 15.9482L35.7409 16.2945ZM35.4724 16.9683C35.5625 16.7396 35.6508 16.5157 35.741 16.2944L34.8921 15.9483C34.7995 16.1754 34.7093 16.4042 34.6195 16.6325L35.4724 16.9683ZM35.276 17.4787C35.3407 17.3066 35.4062 17.1365 35.4724 16.9683L34.6195 16.6324C34.5515 16.805 34.4843 16.9796 34.418 17.156L35.276 17.4787ZM35.2316 17.0681L31.1053 10.6998L30.336 11.1982L34.4623 17.5666L35.2316 17.0681ZM31.1048 10.699C30.6548 10.0075 29.8146 9.61385 28.9413 9.61385V10.5305C29.5603 10.5305 30.0839 10.8109 30.3365 11.199L31.1048 10.699ZM28.9413 9.61385H26.9306V10.5305H28.9413V9.61385ZM26.5462 10.3217L33.2694 20.6821L34.0383 20.1831L27.3151 9.82269L26.5462 10.3217ZM33.6538 20.891H34.8541V19.9743H33.6538V20.891ZM34.8541 20.891C34.8815 20.891 34.9088 20.8903 34.936 20.889L34.8924 19.9734C34.8792 19.974 34.8665 19.9743 34.8541 19.9743V20.891ZM35.2923 19.9728H34.9142V20.8895H35.2923V19.9728ZM36.6056 19.1803C36.4566 19.6108 35.9477 19.9728 35.2923 19.9728V20.8895C36.2491 20.8895 37.1682 20.3576 37.4719 19.48L36.6056 19.1803ZM41.7817 9.34049C39.6992 11.9466 37.9766 15.2303 36.6058 19.1799L37.4718 19.4804C38.8171 15.6043 40.4951 12.419 42.4978 9.91273L41.7817 9.34049ZM49.1544 3.60076C46.3281 4.82592 43.8708 6.74278 41.7826 9.33938L42.4969 9.91384C44.5003 7.4227 46.841 5.60268 49.519 4.44181L49.1544 3.60076ZM51.9508 2.71364C50.9748 2.96327 50.0497 3.25922 49.1735 3.59298L49.4998 4.4496C50.3438 4.12811 51.2358 3.84269 52.178 3.60172L51.9508 2.71364ZM50.9553 0.611162L51.6198 3.26884L52.5091 3.04652L51.8446 0.388838L50.9553 0.611162Z" fill="url(#paint1_linear_1033_2661)" mask="url(#path-3-outside-1_1033_2661)"/>
<defs>
<linearGradient id="paint0_linear_1033_2661" x1="32.8714" y1="22.7597" x2="49.0924" y2="5.57004" gradientUnits="userSpaceOnUse">
<stop stop-color="#004FA3"/>
<stop offset="0.13" stop-color="#0965A9"/>
<stop offset="0.331101" stop-color="#168E85"/>
<stop offset="0.687999" stop-color="#25B95E"/>
<stop offset="0.974935" stop-color="#34E834"/>
</linearGradient>
<linearGradient id="paint1_linear_1033_2661" x1="32.8714" y1="22.7597" x2="49.0924" y2="5.57004" gradientUnits="userSpaceOnUse">
<stop stop-color="#004FA3"/>
<stop offset="0.13" stop-color="#0965A9"/>
<stop offset="0.331101" stop-color="#168E85"/>
<stop offset="0.687999" stop-color="#25B95E"/>
<stop offset="0.974935" stop-color="#34E834"/>
</linearGradient>
</defs>
</svg>
