<svg width="18" height="17" viewBox="0 0 18 17" fill="none" xmlns="http://www.w3.org/2000/svg">
<path d="M8.9996 1.0625C7.35917 1.06434 5.78649 1.68061 4.62653 2.77612C3.46657 3.87164 2.81405 5.35696 2.8121 6.90625C2.8121 11.9064 8.4371 15.6833 8.67661 15.8415C8.77132 15.904 8.88407 15.9375 8.9996 15.9375C9.11514 15.9375 9.22788 15.904 9.3226 15.8415C9.5621 15.6833 15.1871 11.9064 15.1871 6.90625C15.1852 5.35696 14.5326 3.87164 13.3727 2.77612C12.2127 1.68061 10.64 1.06434 8.9996 1.0625V1.0625ZM9.00002 4.78144C9.44502 4.78144 9.88004 4.90607 10.25 5.13957C10.6201 5.37307 10.9084 5.70495 11.0787 6.09324C11.249 6.48153 11.2936 6.9088 11.2068 7.32101C11.12 7.73322 10.9057 8.11186 10.591 8.40904C10.2763 8.70623 9.87543 8.90862 9.43897 8.99061C9.00251 9.07261 8.55011 9.03052 8.13898 8.86969C7.72784 8.70885 7.37644 8.43648 7.12921 8.08703C6.88198 7.73757 6.75002 7.32673 6.75002 6.90644C6.75001 6.62738 6.8082 6.35105 6.92127 6.09323C7.03434 5.83541 7.20007 5.60115 7.40901 5.40382C7.61794 5.2065 7.86598 5.04997 8.13897 4.94318C8.41195 4.83639 8.70454 4.78143 9.00002 4.78144V4.78144Z" fill="#FACC15"/>
</svg>
